<?xml version="1.0" encoding="utf-8"?>
<!-- Generator: Adobe Illustrator 23.0.4, SVG Export Plug-In . SVG Version: 6.00 Build 0)  -->
<svg version="1.1" id="Capa_1" xmlns="http://www.w3.org/2000/svg" xmlns:xlink="http://www.w3.org/1999/xlink" x="0px" y="0px"
	 viewBox="0 0 512 512" style="enable-background:new 0 0 512 512;" xml:space="preserve">
<style type="text/css">
	.st0{fill:#FFFFFF;}
</style>
<g>
	<g>
		<g>
			<path class="st0" d="M403.1,267.8l-128-256C271.5,4.6,264.1,0,256,0s-15.5,4.6-19.1,11.8l-128,256c-3.3,6.6-3,14.5,0.9,20.8
				s10.8,10.1,18.1,10.1h256c7.4,0,14.3-3.8,18.1-10.1C406,282.3,406.4,274.4,403.1,267.8z M162.5,256L256,69l93.5,187H162.5z"/>
		</g>
	</g>
</g>
<path class="st0" d="M318.7,479.8c-3.7-3.4-8.9-5.1-15.5-5.1h-71.6v-35.5h63.2c6.6,0,11.7-1.7,15.2-5c3.5-3.4,5.4-7.9,5.4-13.1
	s-1.9-9.7-5.5-13c-3.5-3.2-8.6-4.8-15-4.8h-63.2v-29.1h69.1c6.7,0,11.9-1.7,15.5-5c3.7-3.4,5.6-8,5.6-13.4c0-5.3-1.9-9.9-5.6-13.3
	c-3.6-3.3-8.8-4.9-15.5-4.9h-87.4c-5.5,0-10.1,0.9-13.8,2.6c-4.2,1.9-7.4,5-9.3,9.2c-1.8,3.8-2.6,8.4-2.6,14v122.8
	c0,8.6,2.1,15.1,6.3,19.4s10.8,6.4,19.5,6.4h89.9c6.6,0,11.8-1.7,15.5-5.1c3.8-3.4,5.7-8.1,5.7-13.5
	C324.5,487.9,322.5,483.2,318.7,479.8z"/>
</svg>
