<?xml version="1.0" encoding="utf-8"?>
<!-- Generator: Adobe Illustrator 23.0.4, SVG Export Plug-In . SVG Version: 6.00 Build 0)  -->
<svg version="1.1" id="Capa_1" xmlns="http://www.w3.org/2000/svg" xmlns:xlink="http://www.w3.org/1999/xlink" x="0px" y="0px"
	 viewBox="0 0 512 512" style="enable-background:new 0 0 512 512;" xml:space="preserve">
<style type="text/css">
	.st0{fill:#FFFFFF;}
</style>
<g>
	<g>
		<g>
			<path class="st0" d="M403.1,267.8l-128-256C271.5,4.6,264.1,0,256,0s-15.5,4.6-19.1,11.8l-128,256c-3.3,6.6-3,14.5,0.9,20.8
				s10.8,10.1,18.1,10.1h256c7.4,0,14.3-3.8,18.1-10.1C406,282.3,406.4,274.4,403.1,267.8z M162.5,256L256,69l93.5,187H162.5z"/>
		</g>
	</g>
	<path class="st0" d="M324.4,338.7L324.4,338.7c-3.8-4.3-9.1-6.6-15.4-6.6c-6.2,0-11.4,2.3-15.2,6.7c-3.6,4.2-5.4,10.2-5.4,17.8
		v78.9l-53.5-81c-1.8-2.8-3.5-5.5-5.2-8.1c-1.9-2.9-3.7-5.3-5.6-7.2c-2.1-2.1-4.5-3.8-7.2-5.1c-2.8-1.3-6.2-1.9-9.9-1.9
		c-4.9,0-9.4,1.4-13.6,4.1c-4.2,2.7-7.3,6.3-9.1,10.7l-0.1,0.1c-1.5,3.7-2.2,8.5-2.2,14.6v126c0,7.5,1.9,13.5,5.6,17.7
		c3.8,4.4,9.2,6.7,15.4,6.7c6,0,11.3-2.3,15.2-6.6c3.8-4.2,5.8-10.2,5.8-17.8v-77.2l52,79.7l0.1,0.1c1.8,2.6,3.6,5.2,5.4,7.7
		c2,2.8,4.2,5.3,6.6,7.4c2.6,2.3,5.5,4.1,8.5,5.1c3,1.1,6.3,1.6,9.9,1.6c8.7,0,23.3-3.5,23.3-27V356.5
		C329.9,348.8,328,342.8,324.4,338.7z"/>
</g>
</svg>
