<?xml version="1.0" encoding="utf-8"?>
<!-- Generator: Adobe Illustrator 23.0.4, SVG Export Plug-In . SVG Version: 6.00 Build 0)  -->
<svg version="1.1" id="Capa_1" xmlns="http://www.w3.org/2000/svg" xmlns:xlink="http://www.w3.org/1999/xlink" x="0px" y="0px"
	 viewBox="0 0 512 512" style="enable-background:new 0 0 512 512;" xml:space="preserve">
<style type="text/css">
	.st0{fill:#FFFFFF;}
</style>
<g>
	<g>
		<g>
			<path class="st0" d="M403.1,267.8l-128-256C271.5,4.6,264.1,0,256,0s-15.5,4.6-19.1,11.8l-128,256c-3.3,6.6-3,14.5,0.9,20.8
				s10.8,10.1,18.1,10.1h256c7.4,0,14.3-3.8,18.1-10.1C406,282.3,406.4,274.4,403.1,267.8z M162.5,256L256,69l93.5,187H162.5z"/>
		</g>
	</g>
</g>
<path class="st0" d="M321.4,431.3c-3.3-6.4-8-11.8-14-16.1c-5.6-4-12.5-7.4-20.4-10.2c-7.6-2.6-16.2-5.1-25.5-7.3
	c-7.2-1.8-12.5-3.2-15.6-4.2c-2.8-0.8-5.6-2.1-8.4-3.6c-2.4-1.3-4.3-2.9-5.6-4.6c-1.1-1.4-1.6-3.1-1.6-5.2c0-2.2,0.6-5.5,5.6-9.1
	c4.3-3.1,10.1-4.6,17.5-4.6c7.7,0,13.5,1.4,16.5,3.9c3.5,2.9,6.6,7.2,9.3,12.6l0.1,0.2c2.6,4.9,5,8.4,7.4,10.7
	c3,2.9,7.2,4.4,12.5,4.4c5.7,0,10.7-2.3,14.5-6.6c3.7-4.2,5.6-9,5.6-14.3c0-5.1-1.3-10.4-3.9-15.7c-2.6-5.2-6.6-10.1-12-14.7
	c-5.3-4.6-12.1-8.2-20-10.9c-7.9-2.7-17.2-4-27.8-4c-13.2,0-24.9,2-34.8,6c-10.2,4.1-18.2,10.2-23.7,18c-5.5,7.9-8.4,17-8.4,27.1
	c0,10.6,2.7,19.6,8,26.9c5.2,7.1,12.2,12.7,21,16.8c8.2,3.8,18.5,7.2,30.6,10c8.5,2,15.4,3.8,20.5,5.5c4.4,1.5,8,3.6,10.7,6.4
	c2.3,2.3,3.4,5.4,3.4,9.4c0,5.1-2.2,9.1-7,12.7c-5.1,3.8-12.1,5.8-20.6,5.8c-6.2,0-11.2-0.9-14.7-2.8c-3.6-1.8-6.3-4.2-8.2-6.9
	c-2.2-3.1-4.2-7.2-6.1-11.9c-2-5.2-4.5-9.1-7.6-12c-3.5-3.2-7.7-4.8-12.6-4.8c-5.8,0-10.7,2-14.6,6c-3.8,3.9-5.7,8.7-5.7,14.1
	c0,7.9,2.6,16.1,7.8,24.3c5.1,8,11.8,14.5,20,19.4c11.3,6.6,25.6,9.9,42.7,9.9c14.2,0,26.7-2.4,37.2-7.2c10.7-4.9,19-11.8,24.7-20.5
	s8.5-18.7,8.5-29.6C326.4,445.6,324.7,437.7,321.4,431.3z"/>
</svg>
