<?xml version="1.0" encoding="utf-8"?>
<!-- Generator: Adobe Illustrator 23.0.4, SVG Export Plug-In . SVG Version: 6.00 Build 0)  -->
<svg version="1.1" id="Capa_1" xmlns="http://www.w3.org/2000/svg" xmlns:xlink="http://www.w3.org/1999/xlink" x="0px" y="0px"
	 viewBox="0 0 512 512" style="enable-background:new 0 0 512 512;" xml:space="preserve">
<style type="text/css">
	.st0{fill:#FFFFFF;}
</style>
<g>
	<g>
		<path class="st0" d="M403.1,267.8l-128-256C271.5,4.6,264.1,0,256,0s-15.5,4.6-19.1,11.8l-128,256c-3.3,6.6-3,14.5,0.9,20.8
			s10.8,10.1,18.1,10.1h256c7.4,0,14.3-3.8,18.1-10.1C406,282.3,406.4,274.4,403.1,267.8z M162.5,256L256,69l93.5,187H162.5z"/>
	</g>
</g>
<path class="st0" d="M358.3,337.8L358.3,337.8c-4.1-3.9-9-5.8-14.8-5.8s-10.4,1.7-13.7,4.9c-2.9,2.8-5,6.1-6.2,9.8
	c-1,3-2,7.1-3.1,12.2L304,432.7l-18.4-67.8c-2.1-7.6-3.7-12.9-4.9-16.3c-1.5-4-4.2-7.8-7.9-11.1c-4.1-3.6-9.7-5.4-16.6-5.4
	c-6.8,0-12.3,1.7-16.5,5.1c-3.9,3.2-6.8,7.1-8.6,11.5c-1.5,3.8-3.1,9.1-5,16.2l-18.2,67.7L191.4,359c-1.7-7.9-3.6-13.9-6-18.3
	c-2.1-4-6.8-8.7-17-8.7c-5.8,0-10.9,2-14.9,5.9c-4.1,4-6.1,8.9-6.1,14.6c0,3.8,0.9,9.1,2.6,15.9l27.2,110c0.8,3.3,1.8,6.9,2.8,10.8
	c1.2,4.3,2.7,8.1,4.6,11.3c2.1,3.6,4.9,6.4,8.4,8.4s7.8,3,12.8,3c6.4,0,11.6-1.7,15.7-5.1c3.8-3.2,6.5-6.8,8-11
	c1.3-3.4,3-8.8,5.1-16.5l21.4-78.4l21.2,78.5c2.2,7.9,3.9,13.3,5.2,16.7c1.5,4.1,4.2,7.7,8,10.8c4,3.4,9.3,5.1,15.7,5.1
	c6.7,0,12.1-1.8,16.1-5.3c3.6-3.2,6.2-7,7.8-11.4c1.3-3.7,2.9-9.2,4.8-16.8l27.2-110c1.8-7.2,2.6-12.4,2.6-15.9
	C364.5,346.7,362.4,341.8,358.3,337.8z"/>
</svg>
